<svg width="24" height="24" viewBox="0 0 24 24" fill="none" xmlns="http://www.w3.org/2000/svg">
<path d="M9.05701 20.47L2.29301 13.707C2.11085 13.5184 2.01006 13.2658 2.01234 13.0036C2.01461 12.7414 2.11978 12.4906 2.30519 12.3052C2.4906 12.1198 2.74141 12.0146 3.00361 12.0123C3.26581 12.01 3.51841 12.1108 3.70701 12.293L8.94301 17.529L20.243 4.349C20.3255 4.24041 20.4293 4.14983 20.5481 4.0828C20.6669 4.01578 20.7981 3.97374 20.9337 3.95925C21.0693 3.94476 21.2065 3.95813 21.3367 3.99855C21.467 4.03897 21.5876 4.10558 21.6912 4.19428C21.7947 4.28299 21.8791 4.39193 21.9391 4.51442C21.999 4.63691 22.0334 4.77035 22.0399 4.90658C22.0464 5.0428 22.0251 5.17892 21.9771 5.30659C21.9292 5.43425 21.8556 5.55078 21.761 5.649L9.05701 20.47Z" fill="black"/>
</svg>
