<svg xmlns="http://www.w3.org/2000/svg" xmlns:xlink="http://www.w3.org/1999/xlink" width="100%" height="100%" viewBox="0 0 74 16" version="1.1" aria-labelledby="paymentsdiscover-2-discover" role="img" focusable="false">
    <g stroke="none" stroke-width="1" fill="none" fill-rule="evenodd" data-darkreader-inline-stroke="" style="--darkreader-inline-stroke:none;">
        <g transform="translate(0.000000, -1.000000)" fill-rule="nonzero">
            <path d="M0.405,34.334 L73.758,34.334 C75.711,34.334 77.292,32.77 77.292,30.844 L77.292,6.355 C70.252,10.757 43.71,25.944 0.405,34.334" fill="#E6792B" data-darkreader-inline-fill="" style="--darkreader-inline-fill:#e8843d;"></path>
            <path d="M13.18,7.61 C12.646,8.087 11.96,8.29 10.863,8.29 L10.409,8.292 L10.409,2.625 L10.861,2.625 C11.957,2.625 12.618,2.819 13.179,3.318 C13.767,3.832 14.115,4.628 14.115,5.448 C14.115,6.273 13.767,7.098 13.18,7.608 L13.18,7.61 Z M11.2,1.176 L8.715,1.176 L8.715,9.746 L11.192,9.746 C12.505,9.746 13.455,9.436 14.288,8.756 C15.278,7.946 15.864,6.726 15.864,5.466 C15.864,2.936 13.948,1.176 11.204,1.176 L11.2,1.176 Z" fill="#0D1619" data-darkreader-inline-fill="" style="--darkreader-inline-fill:#dcd9d4;"></path>
            <polygon fill="#0D1619" points="16.642 9.743 18.332 9.743 18.332 1.173 16.642 1.173" data-darkreader-inline-fill="" style="--darkreader-inline-fill:#dcd9d4;"></polygon>
            <path d="M22.474,4.46 C21.459,4.09 21.16,3.845 21.16,3.382 C21.16,2.842 21.69,2.432 22.42,2.432 C22.93,2.432 23.346,2.639 23.79,3.124 L24.673,1.984 C23.943,1.352 23.073,1.034 22.123,1.034 C20.587,1.034 19.416,2.084 19.416,3.484 C19.416,4.669 19.962,5.271 21.549,5.834 C22.212,6.068 22.549,6.221 22.719,6.324 C23.059,6.544 23.227,6.851 23.227,7.211 C23.227,7.908 22.667,8.419 21.91,8.419 C21.105,8.419 20.454,8.023 20.063,7.279 L18.973,8.319 C19.753,9.449 20.689,9.951 21.979,9.951 C23.735,9.951 24.971,8.791 24.971,7.135 C24.971,5.775 24.401,5.157 22.471,4.46" fill="#0D1619" data-darkreader-inline-fill="" style="--darkreader-inline-fill:#dcd9d4;"></path>
            <path d="M25.506,5.463 C25.506,7.983 27.512,9.935 30.089,9.935 C30.816,9.935 31.439,9.793 32.209,9.435 L32.209,7.467 C31.529,8.135 30.932,8.404 30.165,8.404 C28.46,8.404 27.248,7.184 27.248,5.448 C27.248,3.805 28.495,2.508 30.088,2.508 C30.89,2.508 31.504,2.79 32.208,3.468 L32.208,1.506 C31.466,1.136 30.854,0.983 30.125,0.983 C27.56,0.983 25.503,2.975 25.503,5.463" fill="#0D1619" data-darkreader-inline-fill="" style="--darkreader-inline-fill:#dcd9d4;"></path>
            <polyline fill="#0D1619" points="45.93 6.93 43.61 1.174 41.763 1.174 45.448 9.961 46.358 9.961 50.11 1.176 48.274 1.176 45.93 6.93" data-darkreader-inline-fill="" style="--darkreader-inline-fill:#dcd9d4;"></polyline>
            <polyline fill="#0D1619" points="50.876 9.743 55.68 9.743 55.68 8.29 52.57 8.29 52.57 5.977 55.562 5.977 55.562 4.527 52.57 4.527 52.57 2.627 55.68 2.627 55.68 1.174 50.876 1.174 50.876 9.742" data-darkreader-inline-fill="" style="--darkreader-inline-fill:#dcd9d4;"></polyline>
            <path d="M58.982,5.118 L58.492,5.118 L58.492,2.522 L59.012,2.522 C60.067,2.522 60.64,2.96 60.64,3.792 C60.64,4.652 60.067,5.118 58.982,5.118 Z M62.38,3.704 C62.38,2.097 61.263,1.174 59.31,1.174 L56.798,1.174 L56.798,9.744 L58.491,9.744 L58.491,6.3 L58.714,6.3 L61.056,9.743 L63.138,9.743 L60.4,6.133 C61.678,5.876 62.38,5.015 62.38,3.703 L62.38,3.704 Z" fill="#0D1619" data-darkreader-inline-fill="" style="--darkreader-inline-fill:#dcd9d4;"></path>
            <path d="M63.256,1.916 L63.222,1.916 L63.222,1.72 L63.258,1.72 C63.346,1.72 63.393,1.752 63.393,1.817 C63.393,1.881 63.343,1.917 63.256,1.917 L63.256,1.916 Z M63.576,1.813 C63.576,1.663 63.473,1.58 63.286,1.58 L63.042,1.58 L63.042,2.336 L63.222,2.336 L63.222,2.043 L63.437,2.336 L63.664,2.336 L63.408,2.026 C63.516,1.996 63.576,1.918 63.576,1.813 Z" fill="#1B1A18" data-darkreader-inline-fill="" style="--darkreader-inline-fill:#d8d5cf;"></path>
            <path d="M63.322,2.498 C63.027,2.498 62.788,2.258 62.788,1.958 C62.788,1.658 63.025,1.418 63.322,1.418 C63.612,1.418 63.848,1.661 63.848,1.958 C63.848,2.255 63.613,2.498 63.322,2.498 Z M63.322,1.298 C62.952,1.298 62.657,1.59 62.657,1.956 C62.657,2.322 62.953,2.616 63.322,2.616 C63.686,2.616 63.982,2.32 63.982,1.956 C63.982,1.594 63.686,1.296 63.322,1.296 L63.322,1.298 Z" fill="#1B1A18" data-darkreader-inline-fill="" style="--darkreader-inline-fill:#d8d5cf;"></path>
            <path d="M37.481,1.016 C34.926,1.016 32.853,2.986 32.853,5.418 C32.853,8.004 34.836,9.936 37.481,9.936 C40.061,9.936 42.099,7.978 42.099,5.469 C42.099,2.974 40.074,1.014 37.481,1.014" fill="#E6792B" data-darkreader-inline-fill="" style="--darkreader-inline-fill:#e8843d;"></path>
        </g>
    </g>
<title id="paymentsdiscover-2-discover">Discover</title></svg>