<svg width="20" height="20" viewBox="0 0 20 20" fill="none" xmlns="http://www.w3.org/2000/svg">
<path d="M8 16C6.41775 16 4.87103 15.5308 3.55544 14.6518C2.23985 13.7727 1.21447 12.5233 0.608967 11.0615C0.00346625 9.59966 -0.15496 7.99113 0.153721 6.43928C0.462403 4.88743 1.22433 3.46197 2.34315 2.34315C3.46197 1.22433 4.88743 0.462403 6.43928 0.153721C7.99113 -0.15496 9.59966 0.00346625 11.0615 0.608967C12.5233 1.21447 13.7727 2.23985 14.6518 3.55544C15.5308 4.87103 16 6.41775 16 8C15.9976 10.121 15.154 12.1545 13.6542 13.6542C12.1545 15.154 10.121 15.9976 8 16ZM8 2C6.81332 2 5.65328 2.3519 4.66658 3.01119C3.67989 3.67047 2.91085 4.60755 2.45673 5.7039C2.0026 6.80026 1.88378 8.00666 2.11529 9.17055C2.3468 10.3344 2.91825 11.4035 3.75736 12.2426C4.59648 13.0818 5.66558 13.6532 6.82946 13.8847C7.99335 14.1162 9.19975 13.9974 10.2961 13.5433C11.3925 13.0892 12.3295 12.3201 12.9888 11.3334C13.6481 10.3467 14 9.18669 14 8C13.9982 6.40927 13.3654 4.88423 12.2406 3.75941C11.1158 2.63459 9.59073 2.00186 8 2V2Z" fill="#222222"/>
<path d="M19 20C18.7348 19.9999 18.4805 19.8945 18.293 19.707L14.293 15.707C14.1109 15.5184 14.0101 15.2658 14.0123 15.0036C14.0146 14.7414 14.1198 14.4906 14.3052 14.3052C14.4906 14.1198 14.7414 14.0146 15.0036 14.0123C15.2658 14.01 15.5184 14.1108 15.707 14.293L19.707 18.293C19.8468 18.4328 19.942 18.611 19.9806 18.8049C20.0192 18.9989 19.9994 19.1999 19.9237 19.3826C19.848 19.5653 19.7199 19.7215 19.5555 19.8314C19.3911 19.9413 19.1978 19.9999 19 20Z" fill="#222222"/>
</svg>
