<svg width="48" height="48" viewBox="0 0 48 48" fill="none" xmlns="http://www.w3.org/2000/svg">
<path d="M13 41C15.2091 41 17 39.2091 17 37C17 34.7909 15.2091 33 13 33C10.7909 33 9 34.7909 9 37C9 39.2091 10.7909 41 13 41Z" fill="#4E90C6"/>
<path d="M35 41C37.2091 41 39 39.2091 39 37C39 34.7909 37.2091 33 35 33C32.7909 33 31 34.7909 31 37C31 39.2091 32.7909 41 35 41Z" fill="#4E90C6"/>
<path d="M38.6 14C38 13.7 37.5 13.4 36.9 13H28V27H4V34C4.4 34.4 4.6 34.6 5 35H7.4C8.2 32.7 10.4 31 13 31C15.6 31 17.8 32.7 18.6 35H29.3C30.1 32.7 32.3 31 34.9 31C37.5 31 39.7 32.7 40.5 35H43C43.4 34.6 43.6 34.4 44 34V23L38.6 14ZM32 23V17H36.9L40.5 23H32Z" fill="#D4CFCA"/>
<path d="M28 9C27.2 8.2 26.8 7.8 26 7H6C5.2 7.8 4.8 8.2 4 9V27H28V9Z" fill="#B4D8EC"/>
</svg>
