<svg width="48" height="48" viewBox="0 0 48 48" fill="none" xmlns="http://www.w3.org/2000/svg">
<rect width="48" height="48" fill="white"/>
<path d="M43 9L41.9 7.1L40 6L41.9 4.9L43 3L44.1 4.9L46 6L44.1 7.1L43 9Z" fill="#4E6CC6"/>
<path d="M6 28L4.9 26.1L3 25L4.9 23.9L6 22L7.1 23.9L9 25L7.1 26.1L6 28Z" fill="#4E6CC6"/>
<path d="M43 42L41.9 40.1L40 39L41.9 37.9L43 36L44.1 37.9L46 39L44.1 40.1L43 42Z" fill="#4E6CC6"/>
<path d="M15.8 28L38.3 26L40 13.8H12.2L15.8 28Z" fill="black"/>
<path d="M15.7 19.4L20.5 19.2V15H14.6L15.7 19.4Z" fill="#D7E6F5"/>
<path d="M23.5 26.3L28.5 25.9V21.9L23.5 22.1V26.3Z" fill="#D7E6F5"/>
<path d="M23.5 19.1L28.5 18.9V15H23.5V19.1Z" fill="#D7E6F5"/>
<path d="M17.5 26.9L20.5 26.6V22.2L16.4 22.4L17.5 26.9Z" fill="#D7E6F5"/>
<path d="M31.5 18.8L37.2 18.5L37.7 15H31.5V18.8Z" fill="#D7E6F5"/>
<path d="M31.5 25.6L36.2 25.1L36.8 21.5L31.5 21.8V25.6Z" fill="#D7E6F5"/>
<path d="M35 45C36.6569 45 38 43.6569 38 42C38 40.3431 36.6569 39 35 39C33.3431 39 32 40.3431 32 42C32 43.6569 33.3431 45 35 45Z" fill="black"/>
<path d="M15 45C16.6569 45 18 43.6569 18 42C18 40.3431 16.6569 39 15 39C13.3431 39 12 40.3431 12 42C12 43.6569 13.3431 45 15 45Z" fill="black"/>
<path d="M40 11H13.6L13 8.5L11 7H4V11H9.4L10 13.5L13.9 29L12.5 34.5L14.4 37H38V33H17.1L17.6 30.9L38.2 29L40 27.3L42 13.3L40 11ZM20.5 26.6L17.5 26.9L16.4 22.5L20.5 22.3V26.6ZM20.5 19.2L15.7 19.4L14.6 15H20.5V19.2ZM28.5 25.9L23.5 26.4V22.2L28.5 22V25.9ZM28.5 18.9L23.5 19.1V15H28.5V18.9ZM36.2 25.1L31.5 25.5V21.7L36.8 21.5L36.2 25.1ZM37.2 18.5L31.5 18.7V15H37.7L37.2 18.5Z" fill="black"/>
</svg>
