<svg width="12" height="18" viewBox="0 0 12 18" fill="none" xmlns="http://www.w3.org/2000/svg">
<path d="M11 18C10.7551 18.0004 10.5186 17.9103 10.336 17.747L0.5 8.99999L10.341 0.25299C10.5405 0.0871088 10.7967 0.0052867 11.0555 0.0248087C11.3143 0.0443307 11.5553 0.163668 11.7277 0.357611C11.9001 0.551554 11.9903 0.804914 11.9794 1.06417C11.9684 1.32343 11.8571 1.56827 11.669 1.74699L3.5 8.99999L11.659 16.253C11.8101 16.3874 11.9168 16.5645 11.9652 16.7609C12.0135 16.9573 12.0012 17.1637 11.9298 17.3529C11.8585 17.5422 11.7314 17.7053 11.5654 17.8208C11.3994 17.9363 11.2022 17.9988 11 18Z" fill="black"/>
</svg>
