<svg xmlns="http://www.w3.org/2000/svg" width="100%" height="100%" viewBox="0 0 32 24" aria-labelledby="paymentsgiftcard-giftcard" role="img" focusable="false"><path d="M29.75.143c.542 0 1.005.192 1.39.575.382.384.574.847.574 1.39v8.18H19.76c1.852-.626 3.667-1.822 5.448-3.592.122-.133.18-.284.168-.453-.01-.17-.08-.315-.214-.437l-3.04-3.04c-.122-.132-.268-.204-.436-.214-.17-.01-.32.046-.453.17-1.77 1.78-2.967 3.595-3.59 5.447V.142H29.75zM9.877 2.767l-3.04 3.04c-.132.12-.203.267-.213.436-.01.17.046.32.168.453 1.78 1.77 3.596 2.966 5.448 3.59H.286v-8.18c0-.54.192-1.004.575-1.388.385-.383.848-.575 1.39-.575h12.108V8.17c-.624-1.853-1.82-3.67-3.59-5.45-.134-.122-.285-.178-.454-.168-.168.01-.314.082-.437.215zM.287 13.57h14.07v10.144H2.25c-.542 0-1.005-.192-1.39-.575-.382-.385-.574-.848-.574-1.39v-8.18zm17.355 0h14.072v8.18c0 .542-.192 1.005-.575 1.39-.385.382-.848.574-1.39.574H17.642V13.57z" fill="#7AC142" fill-rule="evenodd" data-darkreader-inline-fill="" style="--darkreader-inline-fill:#87c754;"></path><title id="paymentsgiftcard-giftcard">Giftcard</title></svg>