<svg width="22" height="21" viewBox="0 0 22 21" fill="none" xmlns="http://www.w3.org/2000/svg">
<path d="M9 21C10.1046 21 11 20.1046 11 19C11 17.8954 10.1046 17 9 17C7.89543 17 7 17.8954 7 19C7 20.1046 7.89543 21 9 21Z" fill="black"/>
<path d="M16 21C17.1046 21 18 20.1046 18 19C18 17.8954 17.1046 17 16 17C14.8954 17 14 17.8954 14 19C14 20.1046 14.8954 21 16 21Z" fill="black"/>
<path d="M21 4H5.665L4.978 0.79C4.92995 0.566308 4.80665 0.365857 4.62867 0.222089C4.45069 0.0783209 4.22879 -6.82741e-05 4 4.46187e-08H1C0.734784 4.46187e-08 0.48043 0.105357 0.292893 0.292893C0.105357 0.48043 0 0.734784 0 1C0 1.26522 0.105357 1.51957 0.292893 1.70711C0.48043 1.89464 0.734784 2 1 2H3.191L6.022 15.21C6.03856 15.2648 6.05998 15.318 6.086 15.369C6.1027 15.4223 6.12377 15.4742 6.149 15.524C6.18791 15.5795 6.23249 15.6307 6.282 15.677C6.30909 15.7122 6.33849 15.7456 6.37 15.777C6.42776 15.8185 6.48978 15.8537 6.555 15.882C6.58937 15.9042 6.62511 15.9243 6.662 15.942C6.77046 15.9808 6.88482 16.0004 7 16H18C18.2151 16 18.4245 15.9307 18.5971 15.8022C18.7697 15.6738 18.8963 15.4931 18.958 15.287L21.958 5.287C22.0027 5.13769 22.0119 4.97999 21.9849 4.82649C21.9579 4.67298 21.8953 4.52793 21.8022 4.4029C21.7092 4.27786 21.5882 4.17632 21.4489 4.10637C21.3096 4.03641 21.1559 3.99999 21 4V4ZM18.756 9H16V6H19.656L18.756 9ZM7.819 14L7.219 11H9V14H7.819ZM11 11H14V14H11V11ZM11 9V6H14V9H11ZM9 6V9H6.82L6.22 6H9ZM17.256 14H16V11H18.156L17.256 14Z" fill="black"/>
</svg>
