<svg width="18" height="18" viewBox="0 0 18 18" fill="none" xmlns="http://www.w3.org/2000/svg">
<path d="M10.313 10.252L12.173 6.802L10.845 5.482L7.538 2.175C7.43193 2.07354 7.29079 2.01691 7.144 2.01691C6.99721 2.01691 6.85608 2.07354 6.75 2.175C6.65927 2.27886 6.60927 2.4121 6.60927 2.55C6.60927 2.68791 6.65927 2.82114 6.75 2.925L9.848 6.495L9.315 7.027L4.89 2.707C4.8364 2.65327 4.77273 2.61065 4.70264 2.58156C4.63254 2.55248 4.55739 2.5375 4.4815 2.5375C4.40561 2.5375 4.33046 2.55248 4.26037 2.58156C4.19027 2.61065 4.1266 2.65327 4.073 2.707C3.97107 2.81425 3.91424 2.95655 3.91424 3.1045C3.91424 3.25246 3.97107 3.39476 4.073 3.502L8.213 8.13L7.688 8.662L3.825 4.83C3.77296 4.77219 3.70934 4.72596 3.63828 4.69431C3.56721 4.66266 3.49029 4.64631 3.4125 4.64631C3.33471 4.64631 3.25779 4.66266 3.18673 4.69431C3.11566 4.72596 3.05205 4.77219 3 4.83C2.90927 4.93386 2.85927 5.0671 2.85927 5.205C2.85927 5.34291 2.90927 5.47614 3 5.58L6.6 9.75L6.075 10.282L3 7.68C2.89541 7.59083 2.76245 7.54184 2.625 7.54184C2.48755 7.54184 2.3546 7.59083 2.25 7.68C2.14173 7.78838 2.08092 7.93531 2.08092 8.0885C2.08092 8.2417 2.14173 8.38862 2.25 8.497L5.025 11.265L9.27 15.51C9.40919 15.6498 9.57461 15.7607 9.75677 15.8364C9.93893 15.9121 10.1342 15.951 10.3315 15.951C10.5288 15.951 10.7241 15.9121 10.9062 15.8364C11.0884 15.7607 11.2538 15.6498 11.393 15.51L15.143 11.797L15.548 11.392C15.7449 11.1946 15.883 10.9462 15.9465 10.6747C16.0101 10.4032 15.9968 10.1193 15.908 9.855L13.5 3.885L13.05 4.035C12.9467 4.07162 12.856 4.13684 12.7883 4.22306C12.7207 4.30929 12.679 4.41297 12.668 4.522L12.968 7.597L10.845 10.785L10.313 10.252V10.252Z" fill="#222222"/>
</svg>
