<svg width="85" height="40" viewBox="0 0 85 40" fill="none" xmlns="http://www.w3.org/2000/svg">
<path d="M9.02009 3.06691V14.406C9.02009 14.406 13.0075 14.406 15.1415 14.2437C16.8197 13.9492 17.1286 13.7869 17.4375 12.1053L18.0553 9.64235H19.8804L19.5715 15.025L19.7335 20.5398H17.8933L17.4375 18.3863C16.9817 16.8538 16.3639 16.5424 15.1415 16.3952C13.6121 16.2329 9.02009 16.2329 9.02009 16.2329V25.7431C9.02009 27.572 9.94678 28.3533 12.0808 28.3533H18.5111C20.4982 28.3533 22.4834 28.191 23.7208 25.2864L25.384 21.6004H26.9284C26.7665 22.3667 26.0017 29.1196 25.8548 30.6389C25.8548 30.6389 20.0423 30.4916 17.5994 30.4916H6.57719L0 30.6389V28.9723L2.13401 28.5005C3.67848 28.191 4.13429 27.7343 4.13429 26.5094C4.13429 26.5094 4.29627 22.3667 4.29627 15.4648C4.29627 8.57979 4.13429 4.43522 4.13429 4.43522C4.13429 3.06313 3.67848 2.75361 2.13401 2.44409L0 1.99113V0.309522L6.43028 0.441634H18.673C21.1159 0.441634 25.2352 0 25.2352 0C25.2352 0 25.0882 2.59507 24.9263 8.72888H23.2481L22.6303 6.57545C22.0276 3.81806 21.1141 2.44598 19.4227 2.44598H9.79986C9.02009 2.44786 9.02009 2.59507 9.02009 3.06691ZM33.7994 4.27668H35.6396V10.72L41.923 10.4105L41.6141 13.3302L35.4927 12.8584V24.2125C35.4927 27.4266 36.5663 28.6647 38.4065 28.6647C40.0696 28.6647 41.3052 27.7361 41.761 26.9699L42.6726 28.0457C41.761 30.184 39.1712 31.2598 36.7132 31.2598C33.6676 31.2598 31.1946 29.431 31.1946 25.9073V13.0188H27.5443V11.4863C30.6069 11.1767 32.8878 9.33283 33.7994 4.27668ZM46.9689 24.0483L48.1894 26.968C48.6452 28.191 49.7188 29.431 52.1617 29.431C54.7666 29.431 55.8402 28.0457 55.8402 26.3641C55.8402 21.1437 45.5845 22.6781 45.5845 15.6289C45.5845 11.6486 48.7921 9.78956 52.9264 9.78956C54.7666 9.78956 57.5184 10.0991 58.9009 10.7181C58.592 12.2506 58.43 14.2418 58.43 15.7762L56.9138 15.9234L55.8402 12.8565C55.5313 12.1053 54.2957 11.4844 52.7795 11.4844C50.9393 11.4844 49.101 12.2506 49.101 14.2418C49.101 18.9903 59.6656 17.9277 59.6656 24.9769C59.6656 28.9723 56.1491 31.1107 51.8528 31.1107C48.6452 31.1107 45.4225 29.8726 45.4225 29.8726C45.7314 28.0438 45.5845 26.0545 45.4225 24.0483H46.9689ZM58.9028 38.7638C59.3586 37.0822 59.6675 34.9457 59.9764 32.9395L61.6546 32.7923L62.2724 36.0064C62.4193 36.7727 62.8751 37.3917 64.0975 37.3917C66.0846 37.3917 68.6894 36.1687 71.1455 31.8769C70.0569 29.2668 66.8493 20.8474 63.9355 14.4041C63.1708 12.7093 63.0239 12.5602 61.9635 12.2506L61.1837 11.9562V10.4086L65.7889 10.5709L71.4394 10.2614V11.7958L70.0569 12.1053C68.9833 12.2525 68.5406 12.8565 68.5406 13.4774C68.5406 13.6397 68.5407 13.7869 68.6876 14.0964C68.9814 15.025 71.4394 21.9119 73.2795 26.5113C74.7958 23.2972 77.7095 16.0876 78.1654 14.8627C78.3273 14.2437 78.4742 14.0964 78.4742 13.6397C78.4742 12.8584 78.0184 12.4016 76.958 12.1072L75.8694 11.7958V10.2633L80.1656 10.4105L84.1379 10.2633V11.7958L83.3732 12.3997C81.8438 13.0188 81.6818 13.166 81.0772 14.4041L74.3531 30.1802C70.3658 39.2337 66.2315 40 63.3309 40C61.4926 40.0019 60.1101 39.5301 58.9028 38.7638Z" fill="#F1641E"/>
<path d="M37.9082 35.545H40.8052C40.7666 36.3854 40.5404 37.1263 40.1265 37.7677C39.7127 38.4091 39.1388 38.9095 38.4049 39.2689C37.6765 39.6228 36.8157 39.7997 35.8224 39.7997C35.0168 39.7997 34.2967 39.6643 33.6621 39.3933C33.033 39.1224 32.4978 38.7326 32.0563 38.2239C31.6204 37.7152 31.2866 37.0987 31.0548 36.3743C30.8286 35.65 30.7154 34.8344 30.7154 33.9276V33.2724C30.7154 32.3656 30.8341 31.5501 31.0714 30.8257C31.3141 30.0959 31.6563 29.4766 32.0977 28.9679C32.5447 28.4537 33.0799 28.0611 33.7035 27.7901C34.327 27.5192 35.0195 27.3837 35.781 27.3837C36.8295 27.3837 37.7151 27.5717 38.438 27.9477C39.1608 28.3237 39.7209 28.8407 40.1182 29.4987C40.5155 30.1511 40.7501 30.8948 40.8218 31.7298H37.9248C37.9138 31.2764 37.8365 30.8976 37.693 30.5935C37.5496 30.2838 37.3233 30.0516 37.0143 29.8968C36.7053 29.742 36.2942 29.6646 35.781 29.6646C35.4224 29.6646 35.1106 29.7309 34.8457 29.8636C34.5808 29.9963 34.3601 30.2064 34.1835 30.494C34.007 30.7815 33.8745 31.1547 33.7862 31.6136C33.7035 32.067 33.6621 32.6144 33.6621 33.2558V33.9276C33.6621 34.569 33.7007 35.1164 33.778 35.5698C33.8552 36.0232 33.9794 36.3937 34.1504 36.6812C34.3215 36.9687 34.5422 37.1816 34.8126 37.3199C35.0885 37.4526 35.4251 37.5189 35.8224 37.5189C36.2639 37.5189 36.6363 37.4498 36.9398 37.3116C37.2433 37.1678 37.4778 36.9522 37.6434 36.6646C37.8089 36.3716 37.8972 35.9984 37.9082 35.545Z" fill="black"/>
<path d="M50.1418 37.3945V39.6339H45.0845V37.3945H50.1418ZM45.0845 27.5579V39.6339H42.1792V27.5579H45.0845Z" fill="black"/>
<path d="M61.0345 33.3554V33.8447C61.0345 34.7681 60.9048 35.5975 60.6455 36.3329C60.3916 37.0627 60.0302 37.6875 59.5612 38.2073C59.0921 38.7215 58.5376 39.1169 57.8975 39.3933C57.2574 39.6643 56.5511 39.7997 55.7785 39.7997C55.0005 39.7997 54.2886 39.6643 53.643 39.3933C53.0029 39.1169 52.4456 38.7215 51.9711 38.2073C51.502 37.6875 51.1378 37.0627 50.8785 36.3329C50.6246 35.5975 50.4977 34.7681 50.4977 33.8447V33.3554C50.4977 32.432 50.6246 31.6026 50.8785 30.8672C51.1378 30.1318 51.4993 29.507 51.9628 28.9928C52.4318 28.473 52.9864 28.0777 53.6265 27.8067C54.2721 27.5303 54.9839 27.392 55.762 27.392C56.5345 27.392 57.2408 27.5303 57.8809 27.8067C58.5265 28.0777 59.0838 28.473 59.5529 28.9928C60.0219 29.507 60.3861 30.1318 60.6455 30.8672C60.9048 31.6026 61.0345 32.432 61.0345 33.3554ZM58.0878 33.8447V33.3388C58.0878 32.7416 58.0354 32.2163 57.9306 31.7629C57.8312 31.304 57.6823 30.9197 57.4836 30.6101C57.285 30.3004 57.0394 30.0682 56.7469 29.9134C56.46 29.753 56.1317 29.6729 55.762 29.6729C55.3757 29.6729 55.0391 29.753 54.7522 29.9134C54.4652 30.0682 54.2252 30.3004 54.0321 30.6101C53.8389 30.9197 53.6927 31.304 53.5934 31.7629C53.4996 32.2163 53.4527 32.7416 53.4527 33.3388V33.8447C53.4527 34.4363 53.4996 34.9616 53.5934 35.4205C53.6927 35.8739 53.8389 36.2582 54.0321 36.5734C54.2307 36.8886 54.4735 37.1263 54.7604 37.2867C55.0529 37.447 55.3923 37.5272 55.7785 37.5272C56.1482 37.5272 56.4766 37.447 56.7635 37.2867C57.0504 37.1263 57.2905 36.8886 57.4836 36.5734C57.6823 36.2582 57.8312 35.8739 57.9306 35.4205C58.0354 34.9616 58.0878 34.4363 58.0878 33.8447Z" fill="black"/>
<path d="M72.6059 27.5579V39.6339H69.7089L65.4462 32.1196V39.6339H62.5409V27.5579H65.4462L69.7089 35.0722V27.5579H72.6059Z" fill="black"/>
<path d="M82.7371 37.3945V39.6339H77.3487V37.3945H82.7371ZM77.3487 27.5579V39.6339H74.4434V27.5579H77.3487ZM81.9094 32.3518V34.5165H77.3487V32.3518H81.9094ZM82.7619 27.5579V29.8056H77.3487V27.5579H82.7619Z" fill="black"/>
</svg>
